<svg class="ef-icon ef-svg" id="Icons" xmlns="http://www.w3.org/2000/svg" viewBox="0 0 32 32" width="32" height="32"><defs><style>.cls-1{fill:#191919}</style></defs><path class="cls-1" d="M18.82 16l6.88-6.87a1.05 1.05 0 00.3-.71 1 1 0 00-.29-.71L25 7a1 1 0 00-1.41 0L16 14.59l-.71.7a1 1 0 000 1.42l.71.7L23.58 25a1 1 0 00.7.3A1 1 0 0025 25l.71-.7a1 1 0 00.29-.71 1.05 1.05 0 00-.29-.71z"/><path class="cls-1" d="M15 8.42a1 1 0 00-.29-.71L14 7a1 1 0 00-1.41 0L5 14.59l-.71.7a1 1 0 000 1.42l.71.7L12.58 25a1 1 0 00.7.3A1 1 0 0014 25l.71-.7a1 1 0 00.29-.71 1.05 1.05 0 00-.29-.71L7.82 16l6.88-6.87a1.05 1.05 0 00.3-.71z"/></svg>
