<svg xmlns="http://www.w3.org/2000/svg" viewBox="0 0 172.94 150.34"><title>sb-mig-logo</title><g id="Layer_1" data-name="Layer 1"><path d="M108.79,83.07H222.32a0,0,0,0,1,0,0v0a30,30,0,0,1-30,30H108.87a15,15,0,0,1-15-15v0a15,15,0,0,1,15-15Z" transform="translate(74.48 -131.05) rotate(45)" fill="#c1c1c1"/><path d="M133.6,172.69,92.91,132l-1.72,1.72a7.5,7.5,0,0,1-12.07,8.53l-3.53-3.54a7.49,7.49,0,0,1,0-10.6l.37-.34,0,0,6.32-6.32a30,30,0,0,0-41.09,1.25h0L112.45,194a15,15,0,0,0,21.15,0h0A15,15,0,0,0,133.6,172.69Z" transform="translate(-41.17 -48)" fill="#c1c1c1"/><rect x="56.83" width="50" height="150" rx="25" fill="#09b3af"/><path d="M136.65,107.4l0,0H110.16a1.51,1.51,0,0,0-1.53,1.48v26.56a1.37,1.37,0,0,0,1.49,1.32H114V142l4.87-5.28h17.77a1.23,1.23,0,0,0,1.32-1.35V108.89A1.37,1.37,0,0,0,136.65,107.4Zm-4.43,21.49a4.06,4.06,0,0,1-1.45,1.49,6.69,6.69,0,0,1-2.16.94,10.47,10.47,0,0,1-2.61.38H114V112.77h13.59a3.57,3.57,0,0,1,1.79.44,4.7,4.7,0,0,1,1.35,1.08,5.11,5.11,0,0,1,1.15,3.28,5.25,5.25,0,0,1-.68,2.53,4.2,4.2,0,0,1-2,1.83,4.88,4.88,0,0,1,2.57,1.62,5.13,5.13,0,0,1,.91,3.18,4.34,4.34,0,0,1-.5,2.16Z" transform="translate(-41.17 -48)" fill="#fff"/><path d="M126.38,119.83a1.4,1.4,0,0,0,.43-1.21,1.52,1.52,0,0,0-.37-1.12,1.34,1.34,0,0,0-.88-.33h-6.45v3h6.32A1.62,1.62,0,0,0,126.38,119.83Z" transform="translate(-41.17 -48)" fill="#fff"/><path d="M126.14,123.92h-7v3.38H126a1.51,1.51,0,0,0,1.52-1.62,2.06,2.06,0,0,0-.37-1.22A1.25,1.25,0,0,0,126.14,123.92Z" transform="translate(-41.17 -48)" fill="#fff"/></g></svg>