<svg class="ef-icon ef-svg" id="Icons" xmlns="http://www.w3.org/2000/svg" viewBox="0 0 32 32" width="32" height="32"><defs><style>.cls-1{fill:#191919}</style></defs><path class="cls-1" d="M16 14.59L8.41 7A1 1 0 007 7l-.71.7a1 1 0 00-.29.72 1.05 1.05 0 00.29.71L13.17 16l-6.88 6.87a1.05 1.05 0 00-.29.71 1 1 0 00.29.71L7 25a1 1 0 00.71.3 1 1 0 00.7-.3L16 17.41l.7-.7a1 1 0 000-1.42z"/><path class="cls-1" d="M27.7 15.29l-.7-.7L19.41 7A1 1 0 0018 7l-.71.7a1 1 0 00-.29.71 1.05 1.05 0 00.29.71L24.17 16l-6.88 6.87a1.05 1.05 0 00-.29.71 1 1 0 00.29.71L18 25a1 1 0 00.71.3 1 1 0 00.7-.3L27 17.41l.7-.7a1 1 0 000-1.42z"/></svg>
